<?xml version="1.0" encoding="UTF-8" standalone="no"?>
<svg
   xmlns:dc="http://purl.org/dc/elements/1.1/"
   xmlns:cc="http://creativecommons.org/ns#"
   xmlns:rdf="http://www.w3.org/1999/02/22-rdf-syntax-ns#"
   xmlns:svg="http://www.w3.org/2000/svg"
   xmlns="http://www.w3.org/2000/svg"
   xml:space="preserve"
   enable-background="new 0 0 97.117 90.999"
   viewBox="0 0 97.117 90.999"
   height="90.999px"
   width="97.117px"
   y="0px"
   x="0px"
   id="Ebene_1"
   version="1.1"><metadata
     id="metadata23"><rdf:RDF><cc:Work
         rdf:about=""><dc:format>image/svg+xml</dc:format><dc:type
           rdf:resource="http://purl.org/dc/dcmitype/StillImage" /><dc:title></dc:title></cc:Work></rdf:RDF></metadata><defs
     id="defs21" /><g
     id="g4166"><path
       d="m 64.833,64.798 c -3.067,-3.455 -4.532,-8.123 -4.183,-12.713 0.582,-7.66 6.216,-14.691 14.029,-15.76 0.175,-0.025 0.353,-0.041 0.529,-0.059 0,-0.002 0.004,-0.006 0.004,-0.006 0,0 0.391,-0.045 0.795,-0.088 C 73.206,29.195 68.653,22.92 62.517,18.504 57.43,14.84 51.107,12.412 44.797,12.275 c 0.558,0.826 1.082,1.674 1.692,2.461 1.254,-0.191 2.518,-0.312 3.787,-0.365 0.602,-0.025 1.203,-0.035 1.806,-0.027 0.435,0.006 0.915,-0.025 1.343,0.053 1.546,0.521 3.026,1.184 4.507,1.859 -1.243,-0.199 -2.482,-0.406 -3.739,-0.504 -2.256,-0.182 -4.53,-0.107 -6.773,0.186 1.465,1.994 2.623,4.193 4.039,6.221 1.4,2.01 2.727,4.027 3.664,6.305 1.523,3.703 1.84,7.652 1.258,11.594 -0.104,0.703 -0.232,1.402 -0.377,2.098 1.06,-1.283 2.236,-2.467 3.465,-3.584 1.438,-1.309 2.989,-2.479 4.41,-3.805 2.518,-2.346 4.582,-5.066 6.229,-8.084 0.289,0.389 0.582,0.771 0.859,1.166 -1.044,1.875 -2.271,3.643 -3.675,5.27 -1.546,1.791 -3.301,3.322 -5.112,4.834 -1.695,1.416 -3.342,2.906 -4.795,4.576 -0.582,0.668 -1.133,1.367 -1.632,2.102 -0.249,0.365 -0.501,0.709 -0.614,1.141 -0.125,0.486 -0.253,0.973 -0.38,1.459 -0.667,2.543 -1.302,5.104 -1.569,7.725 -0.293,2.887 -0.109,5.797 0.621,8.609 1.502,5.793 5.032,10.879 8.92,15.33 5.135,-1.848 9.766,-4.961 13.427,-9.023 C 71.89,70.03 67.635,67.95 64.833,64.798 Z"
       id="path7"
       style="fill:#93d200;fill-opacity:1" /><path
       style="fill:#ffffff"
       id="path9"
       d="m 78.525,65.229 c -4.398,0 -8.549,-2.295 -10.89,-6.014 -2.344,-3.721 -2.597,-8.5 -0.673,-12.453 1.94,-3.984 5.878,-6.68 10.273,-7.146 -0.203,-0.654 -0.428,-1.303 -0.659,-1.947 -0.351,-0.047 -0.763,-0.086 -1.116,-0.08 -3.648,0.4 -7.086,2.102 -9.489,4.922 -2.474,2.9 -3.917,6.545 -4.05,10.367 -0.155,4.52 1.6,9.07 4.967,12.133 3.105,2.822 7.406,4.072 11.543,3.34 5.257,-0.932 9.51,-4.895 11.344,-9.834 -2.209,4.035 -6.503,6.712 -11.25,6.712 z" /><path
       style="fill:#93d200;fill-opacity:1"
       id="path11"
       d="m 65.401,12.813 c 7.597,4.016 13.603,10.861 17.12,18.652 1.054,2.336 1.948,4.762 2.566,7.254 0.23,0.928 0.457,1.855 0.639,2.795 0.033,0.17 0.016,0.26 0.16,0.363 0.146,0.104 0.287,0.211 0.429,0.322 0.272,0.211 0.54,0.432 0.797,0.664 0.544,0.496 1.052,1.039 1.504,1.619 -0.528,-0.916 -1.177,-1.781 -1.898,-2.551 -0.126,-0.133 -0.314,-0.285 -0.381,-0.447 -0.118,-0.607 -0.055,-1.242 -0.099,-1.857 -0.166,-2.24 -0.468,-4.475 -0.936,-6.674 -0.781,-3.682 -1.977,-7.41 -4.02,-10.596 -0.6,-0.938 -1.291,-1.859 -2.164,-2.561 -0.398,-0.318 -0.828,-0.553 -1.299,-0.744 -0.608,-0.244 -1.414,-0.525 -2.05,-0.225 l -0.166,-0.15 -0.399,-0.363 c 0.131,0.123 0.263,0.242 0.393,0.367 C 69.262,12.698 60.898,8.919 52.215,8.14 47.819,7.745 43.376,8.185 39.159,9.505 c 0.179,0.182 0.372,0.379 0.56,0.557 8.532,-2.561 17.849,-1.389 25.682,2.751 z" /><path
       style="fill:#ffffff"
       id="path13"
       d="m 10.868,31.456 c 0.954,-0.955 2.104,-1.734 3.349,-2.266 0.842,-0.359 1.721,-0.564 2.611,-0.764 -1.174,0.932 -2.271,1.912 -3.213,3.09 -1.189,1.482 -2.086,3.213 -2.658,5.025 -1.404,4.387 -0.858,9.311 1.471,13.287 0.049,0.08 0.097,0.16 0.146,0.242 -0.665,-8.66 1.167,-17.955 6.489,-24.986 0.949,-1.254 2.054,-2.318 3.123,-3.463 1.028,-1.102 1.838,-2.381 2.524,-3.721 -3.546,2.471 -6.511,5.984 -8.427,9.855 -0.111,0.223 -0.875,0.271 -1.135,0.346 -0.422,0.121 -0.836,0.271 -1.239,0.445 -0.787,0.344 -1.532,0.785 -2.22,1.299 -1.45,1.086 -2.646,2.496 -3.545,4.064 -3.93,6.855 -1.939,16.676 5.062,20.754 C 13.144,54.352 13.079,54.04 13.024,53.727 5.727,48.946 4.775,37.565 10.868,31.456 Z" /><path
       style="fill:#93d200;fill-opacity:1"
       id="path15"
       d="m 41.788,11.851 c -0.386,0.205 -0.821,0.438 -1.342,0.438 -0.63,0 -1.099,-0.332 -1.513,-0.693 -0.469,-0.41 -0.903,-0.863 -1.323,-1.303 L 37.403,10.076 C 37.284,9.951 37.162,9.814 37.037,9.676 36.699,9.297 36.322,8.877 35.924,8.617 c -0.133,0.156 -0.248,0.357 -0.37,0.568 -0.313,0.541 -0.705,1.217 -1.578,1.242 -10e-4,0 -10e-4,0 -0.002,0 -0.558,0 -0.992,-0.295 -1.393,-0.596 -0.176,-0.133 -0.346,-0.277 -0.517,-0.42 -0.214,-0.18 -0.418,-0.352 -0.632,-0.5 -0.407,0.486 -0.732,1.084 -1.049,1.664 -0.128,0.238 -0.257,0.473 -0.388,0.695 -0.154,0.266 -0.316,0.525 -0.479,0.783 -0.225,0.359 -0.45,0.719 -0.652,1.094 -0.703,1.305 -1.344,2.676 -1.89,3.859 -0.402,0.875 -0.755,1.605 -1.161,2.322 -0.922,1.619 -1.904,2.924 -3.094,4.107 -5.755,5.73 -7.729,13.254 -8.371,18.555 -1.098,9.043 0.94,18.117 5.592,24.9 3.887,5.664 9.918,9.914 17.441,12.289 5.047,1.592 10.509,2.355 16.12,2.252 2.107,-0.037 3.985,-0.189 5.74,-0.467 l 0.082,-0.014 c 0.851,-0.133 1.726,-0.271 2.518,-0.551 C 48.33,65.177 50.852,55.573 53.291,46.284 l 0.086,-0.33 c 0.762,-2.908 1.709,-6.525 1.625,-10.07 -0.089,-3.891 -1.457,-7.789 -4.063,-11.586 -1.306,-1.9 -2.55,-3.846 -3.698,-5.664 -0.635,-1.008 -1.25,-1.873 -1.881,-2.645 -0.533,-0.652 -0.998,-1.361 -1.447,-2.047 -0.172,-0.262 -0.342,-0.523 -0.518,-0.781 -0.246,-0.365 -0.525,-0.777 -0.837,-1.137 -0.397,-0.459 -0.429,-0.355 -0.683,-0.221 l -0.087,0.048 z" /><path
       fill="#FFFFFF"
       d="M85.189,44.082c-1.404-6.324-5.394-18.818-15.967-27.181c-11.795-9.328-25.688-6.889-25.688-6.889  l0.711,1.16c26.841,2.108,33.626,23.693,35.105,30.5c-0.2-0.012-0.397-0.031-0.6-0.031c-5.536,0-10.023,4.67-10.023,10.43  c0,5.762,4.488,10.432,10.023,10.432c5.536,0,10.024-4.67,10.024-10.432C88.775,48.862,87.38,45.995,85.189,44.082z"
       id="path17" /></g></svg>