<?xml version="1.0" encoding="UTF-8" standalone="no"?>
<!-- Created with Inkscape (http://www.inkscape.org/) -->

<svg
   xmlns:dc="http://purl.org/dc/elements/1.1/"
   xmlns:cc="http://creativecommons.org/ns#"
   xmlns:rdf="http://www.w3.org/1999/02/22-rdf-syntax-ns#"
   xmlns:svg="http://www.w3.org/2000/svg"
   xmlns="http://www.w3.org/2000/svg"
   xmlns:sodipodi="http://sodipodi.sourceforge.net/DTD/sodipodi-0.dtd"
   xmlns:inkscape="http://www.inkscape.org/namespaces/inkscape"
   width="100"
   height="50"
   viewBox="0 0 100 50"
   id="svg2"
   version="1.1"
   inkscape:version="0.91 r13725"
   sodipodi:docname="toggleButtonOff.svg">
  <defs
     id="defs4" />
  <sodipodi:namedview
     id="base"
     pagecolor="#ffffff"
     bordercolor="#666666"
     borderopacity="1.0"
     inkscape:pageopacity="0.0"
     inkscape:pageshadow="2"
     inkscape:zoom="5.2820877"
     inkscape:cx="56.249732"
     inkscape:cy="8.82817"
     inkscape:document-units="px"
     inkscape:current-layer="layer1"
     showgrid="false"
     units="px"
     inkscape:window-width="1920"
     inkscape:window-height="1032"
     inkscape:window-x="0"
     inkscape:window-y="0"
     inkscape:window-maximized="1" />
  <metadata
     id="metadata7">
    <rdf:RDF>
      <cc:Work
         rdf:about="">
        <dc:format>image/svg+xml</dc:format>
        <dc:type
           rdf:resource="http://purl.org/dc/dcmitype/StillImage" />
        <dc:title></dc:title>
      </cc:Work>
    </rdf:RDF>
  </metadata>
  <g
     inkscape:label="Layer 1"
     inkscape:groupmode="layer"
     id="layer1"
     transform="translate(0,-1002.3622)">
    <path
       style="fill:#ff0000;fill-opacity:1;stroke:#00a4ff;stroke-width:2.95777035;stroke-linejoin:round;stroke-miterlimit:4;stroke-dasharray:none;stroke-opacity:1"
       d="m 6.4960458,1003.8395 87.3459362,0 c 2.779506,0 5.017163,2.2298 5.017163,4.9996 l 0,37.0446 c 0,2.7697 -2.237657,4.9996 -5.017163,4.9996 l -87.3459362,0 c -2.7795073,0 -5.0171606,-2.2299 -5.0171606,-4.9996 l 0,-37.0446 c 0,-2.7698 2.2376533,-4.9996 5.0171606,-4.9996 z"
       id="rect4136"
       inkscape:connector-curvature="0" />
    <path
       style="fill:#ff0000;fill-opacity:1;stroke:#00a4ff;stroke-width:2.73618484;stroke-linejoin:round;stroke-miterlimit:4;stroke-dasharray:none;stroke-opacity:1"
       d="m 12.493034,1005.66 80.802289,0 c 2.571277,0 4.641297,2.0628 4.641297,4.6251 l 0,34.2693 c 0,2.5623 -2.07002,4.625 -4.641297,4.625 l -80.802289,0 c -2.5712771,0 -4.641293,-2.0627 -4.641293,-4.625 l 0,-34.2693 c 0,-2.5623 2.0700159,-4.6251 4.641293,-4.6251 z"
       id="rect4136-3"
       inkscape:connector-curvature="0" />
    <path
       style="fill:#ffffff;fill-opacity:1;stroke:#00a4ff;stroke-width:2.10691833;stroke-linejoin:round;stroke-miterlimit:4;stroke-dasharray:none;stroke-opacity:1"
       d="m 8.1117148,1003.4148 39.7890622,0 c 3.891306,0 7.024023,3.1218 7.024023,6.9995 l 0,33.8942 c 0,3.8777 -3.132717,6.9994 -7.024023,6.9994 l -39.7890622,0 c -3.8913103,0 -7.0240252,-3.1217 -7.0240252,-6.9994 l 0,-33.8942 c 0,-3.8777 3.1327149,-6.9995 7.0240252,-6.9995 z"
       id="rect4136-7"
       inkscape:connector-curvature="0" />
    <g
       style="font-style:normal;font-variant:normal;font-weight:normal;font-stretch:normal;font-size:35px;line-height:125%;font-family:Airmole;-inkscape-font-specification:Airmole;letter-spacing:0px;word-spacing:0px;fill:#4d4d4d;fill-opacity:1;stroke:none;stroke-width:1px;stroke-linecap:butt;stroke-linejoin:miter;stroke-opacity:1"
       id="text6459"
       transform="matrix(6.0047564,0,0,5.9545817,-288.61912,-5216.9838)" />
  </g>
</svg>
