<?xml version="1.0" encoding="UTF-8" standalone="no"?>
<!-- Created with Inkscape (http://www.inkscape.org/) -->

<svg
   xmlns:dc="http://purl.org/dc/elements/1.1/"
   xmlns:cc="http://creativecommons.org/ns#"
   xmlns:rdf="http://www.w3.org/1999/02/22-rdf-syntax-ns#"
   xmlns:svg="http://www.w3.org/2000/svg"
   xmlns="http://www.w3.org/2000/svg"
   xmlns:sodipodi="http://sodipodi.sourceforge.net/DTD/sodipodi-0.dtd"
   xmlns:inkscape="http://www.inkscape.org/namespaces/inkscape"
   width="100"
   height="50"
   viewBox="0 0 100 50"
   id="svg2"
   version="1.1"
   inkscape:version="0.91 r13725"
   sodipodi:docname="toggleButtonOn.svg">
  <defs
     id="defs4" />
  <sodipodi:namedview
     id="base"
     pagecolor="#ffffff"
     bordercolor="#666666"
     borderopacity="1.0"
     inkscape:pageopacity="0.0"
     inkscape:pageshadow="2"
     inkscape:zoom="2.49"
     inkscape:cx="300"
     inkscape:cy="150"
     inkscape:document-units="px"
     inkscape:current-layer="layer1"
     showgrid="false"
     units="px"
     inkscape:window-width="1920"
     inkscape:window-height="1032"
     inkscape:window-x="0"
     inkscape:window-y="0"
     inkscape:window-maximized="1" />
  <metadata
     id="metadata7">
    <rdf:RDF>
      <cc:Work
         rdf:about="">
        <dc:format>image/svg+xml</dc:format>
        <dc:type
           rdf:resource="http://purl.org/dc/dcmitype/StillImage" />
        <dc:title></dc:title>
      </cc:Work>
    </rdf:RDF>
  </metadata>
  <g
     inkscape:label="Layer 1"
     inkscape:groupmode="layer"
     id="layer1"
     transform="translate(0,-1002.3622)">
    <path
       style="fill:#6ef70a;fill-opacity:1;stroke:#00a4ff;stroke-width:2.95511866;stroke-linejoin:round;stroke-miterlimit:4;stroke-dasharray:none;stroke-opacity:1"
       d="m 6.4855301,1003.835 87.1859489,0 c 2.774415,0 5.007974,2.2299 5.007974,4.9998 l 0,37.046 c 0,2.7699 -2.233559,4.9998 -5.007974,4.9998 l -87.1859489,0 c -2.7744162,0 -5.0079708,-2.2299 -5.0079708,-4.9998 l 0,-37.046 c 0,-2.7699 2.2335546,-4.9998 5.0079708,-4.9998 z"
       id="rect4136"
       inkscape:connector-curvature="0" />
    <path
       style="fill:#6ef70a;fill-opacity:1;stroke:#00a4ff;stroke-width:2.73373151;stroke-linejoin:round;stroke-miterlimit:4;stroke-dasharray:none;stroke-opacity:1"
       d="m 8.3111344,1005.3941 80.6542896,0 c 2.566567,0 4.632795,2.0629 4.632795,4.6252 l 0,34.2707 c 0,2.5624 -2.066228,4.6252 -4.632795,4.6252 l -80.6542896,0 c -2.5665676,0 -4.632793,-2.0628 -4.632793,-4.6252 l 0,-34.2707 c 0,-2.5623 2.0662254,-4.6252 4.632793,-4.6252 z"
       id="rect4136-3"
       inkscape:connector-curvature="0" />
    <path
       style="fill:#ffffff;fill-opacity:1;stroke:#00a4ff;stroke-width:2.10502934;stroke-linejoin:round;stroke-miterlimit:4;stroke-dasharray:none;stroke-opacity:1"
       d="m 52.133473,1003.4103 39.716182,0 c 3.88418,0 7.011158,3.1218 7.011158,6.9997 l 0,33.8955 c 0,3.8779 -3.126978,6.9997 -7.011158,6.9997 l -39.716182,0 c -3.884183,0 -7.01116,-3.1218 -7.01116,-6.9997 l 0,-33.8955 c 0,-3.8779 3.126977,-6.9997 7.01116,-6.9997 z"
       id="rect4136-7"
       inkscape:connector-curvature="0" />
  </g>
</svg>
