<?xml version="1.0" encoding="UTF-8" standalone="no"?>
<!-- Generator: Adobe Illustrator 19.0.0, SVG Export Plug-In . SVG Version: 6.00 Build 0)  -->

<svg
   xmlns:dc="http://purl.org/dc/elements/1.1/"
   xmlns:cc="http://creativecommons.org/ns#"
   xmlns:rdf="http://www.w3.org/1999/02/22-rdf-syntax-ns#"
   xmlns:svg="http://www.w3.org/2000/svg"
   xmlns="http://www.w3.org/2000/svg"
   xmlns:sodipodi="http://sodipodi.sourceforge.net/DTD/sodipodi-0.dtd"
   xmlns:inkscape="http://www.inkscape.org/namespaces/inkscape"
   version="1.1"
   id="Capa_1"
   x="0px"
   y="0px"
   viewBox="0 0 60 60"
   style="enable-background:new 0 0 60 60;"
   xml:space="preserve"
   inkscape:version="0.91 r13725"
   sodipodi:docname="AudioSettingsButton.svg"><metadata
     id="metadata47"><rdf:RDF><cc:Work
         rdf:about=""><dc:format>image/svg+xml</dc:format><dc:type
           rdf:resource="http://purl.org/dc/dcmitype/StillImage" /><dc:title /></cc:Work></rdf:RDF></metadata><defs
     id="defs45" /><sodipodi:namedview
     pagecolor="#ffffff"
     bordercolor="#666666"
     borderopacity="1"
     objecttolerance="10"
     gridtolerance="10"
     guidetolerance="10"
     inkscape:pageopacity="0"
     inkscape:pageshadow="2"
     inkscape:window-width="1920"
     inkscape:window-height="1056"
     id="namedview43"
     showgrid="false"
     inkscape:zoom="3.9333333"
     inkscape:cx="-10.042373"
     inkscape:cy="30"
     inkscape:window-x="0"
     inkscape:window-y="0"
     inkscape:window-maximized="1"
     inkscape:current-layer="Capa_1" /><circle
     style="opacity:1;fill:#ffffff;fill-opacity:1;stroke:#000000;stroke-width:0;stroke-linejoin:miter;stroke-miterlimit:4;stroke-dasharray:none;stroke-dashoffset:0;stroke-opacity:1"
     id="path4740"
     cx="30.127125"
     cy="29.872885"
     r="29.11017"
     inkscape:export-xdpi="90"
     inkscape:export-ydpi="90" /><path
     inkscape:connector-curvature="0"
     id="path5"
     d="M 34.437,7.413 C 33.458,6.852 32.294,6.86 31.322,7.432 31.259,7.469 31.201,7.513 31.148,7.563 L 17.906,19.891 C 17.756,19.963 17.593,20 17.427,20 L 9.104,20 C 7.392,20 6,21.393 6,23.104 L 6,35.897 C 6,37.607 7.392,39 9.104,39 l 8.324,0 c 0.166,0 0.329,0.037 0.479,0.109 l 13.242,12.328 c 0.053,0.05 0.112,0.094 0.174,0.131 0.492,0.289 1.033,0.434 1.574,0.434 0.529,0 1.058,-0.138 1.541,-0.415 C 35.416,51.027 36,50.021 36,48.894 L 36,10.106 C 36,8.979 35.416,7.973 34.437,7.413 Z M 34,48.894 c 0,0.577 -0.389,0.862 -0.556,0.958 -0.158,0.09 -0.562,0.262 -1.025,0.037 L 19.175,37.559 C 19.121,37.508 19.062,37.464 18.999,37.428 18.522,37.147 17.979,37 17.427,37 L 9.104,37 C 8.495,37 8,36.505 8,35.896 L 8,23.104 C 8,22.495 8.495,22 9.104,22 l 8.324,0 c 0.551,0 1.095,-0.147 1.572,-0.428 0.063,-0.036 0.122,-0.08 0.176,-0.131 L 32.42,9.111 C 32.885,8.885 33.288,9.058 33.445,9.148 33.611,9.244 34,9.529 34,10.106 l 0,38.788 z"
     inkscape:export-xdpi="90"
     inkscape:export-ydpi="90" /><path
     inkscape:connector-curvature="0"
     id="path7"
     d="m 41.833,17.293 c -0.391,0.391 -0.391,1.023 0,1.414 6.238,6.238 6.238,16.39 0,22.628 -0.391,0.391 -0.391,1.023 0,1.414 0.195,0.195 0.451,0.293 0.707,0.293 0.256,0 0.512,-0.098 0.707,-0.293 7.018,-7.019 7.018,-18.438 0,-25.456 -0.39,-0.391 -1.023,-0.391 -1.414,0 z"
     inkscape:export-xdpi="90"
     inkscape:export-ydpi="90" /><path
     inkscape:connector-curvature="0"
     id="path9"
     d="m 39.707,20.293 c -0.391,-0.391 -1.023,-0.391 -1.414,0 -0.391,0.391 -0.391,1.023 0,1.414 4.297,4.297 4.297,11.289 0,15.586 -0.391,0.391 -0.391,1.023 0,1.414 C 38.488,38.902 38.744,39 39,39 c 0.256,0 0.512,-0.098 0.707,-0.293 5.077,-5.077 5.077,-13.337 0,-18.414 z"
     inkscape:export-xdpi="90"
     inkscape:export-ydpi="90" /><path
     inkscape:connector-curvature="0"
     id="path11"
     d="M 30,0 C 13.458,0 0,13.458 0,30 0,46.542 13.458,60 30,60 46.542,60 60,46.542 60,30 60,13.458 46.542,0 30,0 Z m 0,58 C 14.561,58 2,45.439 2,30 2,14.561 14.561,2 30,2 45.439,2 58,14.561 58,30 58,45.439 45.439,58 30,58 Z"
     style="fill:#000000;stroke:#000000;stroke-width:0.1;stroke-miterlimit:4;stroke-dasharray:none;fill-opacity:1"
     inkscape:export-xdpi="90"
     inkscape:export-ydpi="90" /><g
     id="g13" /><g
     id="g15" /><g
     id="g17" /><g
     id="g19" /><g
     id="g21" /><g
     id="g23" /><g
     id="g25" /><g
     id="g27" /><g
     id="g29" /><g
     id="g31" /><g
     id="g33" /><g
     id="g35" /><g
     id="g37" /><g
     id="g39" /><g
     id="g41" /><path
     inkscape:connector-curvature="0"
     id="path7-3"
     d="m 46.89262,14.292849 c -0.391,0.486428 -0.391,1.272675 0,1.759104 6.238,7.760461 6.238,20.390182 0,28.150642 -0.391,0.486429 -0.391,1.272676 0,1.759104 0.195,0.242592 0.451,0.364511 0.707,0.364511 0.256,0 0.512,-0.121919 0.707,-0.364511 7.018,-8.732073 7.018,-22.938021 0,-31.66885 -0.39,-0.486429 -1.023,-0.486429 -1.414,0 z"
     inkscape:export-xdpi="90"
     inkscape:export-ydpi="90" /></svg>