<?xml version="1.0" encoding="UTF-8" standalone="no"?>
<svg
   xmlns:dc="http://purl.org/dc/elements/1.1/"
   xmlns:cc="http://creativecommons.org/ns#"
   xmlns:rdf="http://www.w3.org/1999/02/22-rdf-syntax-ns#"
   xmlns:svg="http://www.w3.org/2000/svg"
   xmlns="http://www.w3.org/2000/svg"
   xmlns:sodipodi="http://sodipodi.sourceforge.net/DTD/sodipodi-0.dtd"
   xmlns:inkscape="http://www.inkscape.org/namespaces/inkscape"
   width="420"
   height="400"
   viewBox="0 0 335.99977 319.99982"
   id="svg2"
   version="1.1"
   inkscape:version="0.48.4 r9939"
   sodipodi:docname="cabbage_transparent.svg">
  <metadata
     id="metadata9">
    <rdf:RDF>
      <cc:Work
         rdf:about="">
        <dc:format>image/svg+xml</dc:format>
        <dc:type
           rdf:resource="http://purl.org/dc/dcmitype/StillImage" />
        <dc:title></dc:title>
      </cc:Work>
    </rdf:RDF>
  </metadata>
  <defs
     id="defs7" />
  <sodipodi:namedview
     pagecolor="#ffffff"
     bordercolor="#666666"
     borderopacity="1"
     objecttolerance="10"
     gridtolerance="10"
     guidetolerance="10"
     inkscape:pageopacity="0"
     inkscape:pageshadow="2"
     inkscape:window-width="1366"
     inkscape:window-height="744"
     id="namedview5"
     showgrid="false"
     inkscape:zoom="0.536391"
     inkscape:cx="-236.72085"
     inkscape:cy="105.04866"
     inkscape:window-x="0"
     inkscape:window-y="0"
     inkscape:window-maximized="1"
     inkscape:current-layer="svg2" />
  <path
     id="Selection #1"
     d="m 200.37937,24.833718 c 53.94784,10.344682 89.98007,47.887315 109.69256,95.327092 0,0 10.52672,30.68879 10.52672,30.68879 0,0 8.0459,11.5083 8.0459,11.5083 5.72603,9.28336 5.95399,13.91225 5.8333,24.29531 -0.28159,21.82741 -18.8006,37.91344 -41.57053,37.03114 -33.29664,-1.27869 -48.23521,-39.49905 -29.78326,-63.88384 8.78345,-11.6234 20.81209,-15.30604 35.14719,-15.34441 0,0 -12.48456,-33.2462 -12.48456,-33.2462 -13.67803,-28.476641 -34.36941,-49.869297 -62.61057,-65.725176 -13.54393,-7.59548 -30.2258,-12.671921 -45.59347,-15.600142 -7.22791,-1.380996 -18.63967,-0.792793 -22.79674,-6.904979 18.07648,-1.393782 27.42314,-1.636736 45.59346,1.854115 z M 62.298194,72.848908 c -7.817932,7.915154 -14.563087,17.10901 -19.658833,26.852704 -6.543998,12.505678 -12.2566,32.082578 -13.678038,46.033218 0,0 -1.327575,17.90177 -1.327575,17.90177 -0.134107,4.55217 1.340982,6.96892 0,11.50832 -9.158925,-21.37987 -12.632076,-41.76235 0,-62.65631 5.726008,-8.61844 9.909878,-12.23717 17.191422,-19.180502 -8.059312,2.57018 -13.289165,4.296424 -20.061124,9.615822 C 6.5534767,117.2198 1.2297598,144.48168 9.7316079,164.91533 16.543811,181.34659 24.643345,182.10103 30.074333,193.0467 0.0899247,176.34686 -4.9119466,132.46189 16.020829,107.3738 c 4.210686,-5.05087 9.400295,-9.002037 15.394497,-11.98141 4.130239,-2.058713 9.42712,-3.094458 12.565028,-6.303996 0,0 10.553539,-14.960785 10.553539,-14.960785 C 63.451439,62.990124 65.597026,62.491431 75.667815,53.668402 75.305748,60.816334 67.206202,67.887544 62.298194,72.848908 z M 319.67338,235.09037 c -24.70095,19.39787 -61.69871,14.51325 -80.49931,-10.07617 -10.80833,-14.11685 -13.90599,-33.02882 -9.9501,-49.86928 4.10341,-17.4415 15.52862,-33.46357 32.84071,-41.04629 4.46548,-1.9564 18.96153,-6.90497 23.14539,-3.72101 2.0517,1.56001 2.0517,4.16856 2.33332,6.40629 -7.79114,0.66493 -13.51713,2.6597 -20.11477,6.71317 -14.61674,8.96368 -25.37143,24.97302 -25.37143,41.87744 0,25.56119 26.22965,51.51881 53.53212,49.63913 20.15498,-1.3938 25.35799,-8.8486 40.22951,-18.95034 -4.46547,7.91515 -8.81026,13.27291 -16.14544,19.02706 z m 17.48645,-21.58446 c 0,0 -1.34101,1.27869 -1.34101,1.27869 0,0 0,-1.27869 0,-1.27869 0,0 1.34101,0 1.34101,0 z"
     inkscape:connector-curvature="0"
     style="fill:#ffffff;stroke:#ffffff;stroke-width:1.30947196"
     inkscape:export-filename="/home/rory/sourcecode/cabbageaudio/cabbage/Images/CabbageLogo3.png"
     inkscape:export-xdpi="90"
     inkscape:export-ydpi="90" />
  <path
     d="m 187.74022,296.72683 c 0,0 -2.87883,0 -2.87883,0 0,0 -7.19709,0.45789 -7.19709,0.45789 0,0 -3.83843,-0.41496 -3.83843,-0.41496 -28.29415,-1.93169 -59.30398,-10.50266 -82.52658,-27.11041 -32.23334,-23.04193 -48.69547,-58.56592 -50.39878,-97.41909 0,0 -0.4606,-5.24655 -0.4606,-5.24655 -0.17274,-14.84777 2.16391,-34.07403 6.88519,-48.17297 4.33745,-12.93993 10.08552,-24.916385 18.49172,-35.771995 8.29584,-10.717298 14.76361,-14.313574 21.52409,-27.663685 0,0 14.12546,-27.186724 14.12546,-27.186724 1.08917,-1.774291 4.48618,-8.384958 5.82484,-9.191019 1.36266,-0.825141 2.61976,0.300485 3.68012,1.092238 1.70811,1.268714 4.04955,3.391187 6.23748,3.596279 2.52858,0.233711 4.37582,-1.779061 5.73847,-3.605817 0.83485,-1.111319 1.70811,-2.914226 3.39702,-2.303718 1.06037,0.381568 2.9652,2.408649 3.81926,3.257637 2.57175,2.551737 8.21907,8.971618 11.51533,9.744293 2.61494,0.61528 4.90841,-1.006385 6.71248,-1.321179 2.69171,-0.46742 4.48138,2.589893 5.82964,4.454807 0,0 5.89682,8.585281 5.89682,8.585281 0,0 6.34782,8.585278 6.34782,8.585278 0,0 9.43778,14.308804 9.43778,14.308804 8.58851,12.806378 16.42374,23.566595 20.74679,38.63375 2.58135,8.99547 2.7109,15.14349 2.60534,24.32497 -0.0624,5.04624 -2.01519,15.36765 -3.15712,20.50928 -3.59855,16.20235 -9.09712,32.00879 -10.32063,48.64994 0,0 -0.43661,4.76958 -0.43661,4.76958 0,0 0,6.67745 0,6.67745 0.0288,17.99092 8.46856,39.35874 18.08387,54.37343 0,0 12.56611,17.64753 12.56611,17.64753 0,0 6.77485,8.58529 6.77485,8.58529 -7.92639,3.45795 -26.32693,7.04947 -35.02581,7.15439 z M 138.32025,20.090017 c 0,0 -0.47981,0.476959 -0.47981,0.476959 0,0 0,-0.476959 0,-0.476959 0,0 0.47981,0 0.47981,0 z m 96.92072,6.677439 c 0,0 -0.4798,0.47696 -0.4798,0.47696 0,0 0,-0.47696 0,-0.47696 0,0 0.4798,0 0.4798,0 z m 0.95962,0.47696 c 0,0 -0.47981,0.476962 -0.47981,0.476962 0,0 0,-0.476962 0,-0.476962 0,0 0.47981,0 0.47981,0 z m 0.9596,0.476962 c 0,0 -0.47981,0.476958 -0.47981,0.476958 0,0 0,-0.476958 0,-0.476958 0,0 0.47981,0 0.47981,0 z m 0.95961,0.476958 c 0,0 -0.4798,0.476961 -0.4798,0.476961 0,0 0,-0.476961 0,-0.476961 0,0 0.4798,0 0.4798,0 z m 0.95963,0.476961 c 0,0 -0.47981,0.47696 -0.47981,0.47696 0,0 0,-0.47696 0,-0.47696 0,0 0.47981,0 0.47981,0 z m 0.95959,0.47696 c 0,0 -0.4798,0.47696 -0.4798,0.47696 0,0 0,-0.47696 0,-0.47696 0,0 0.4798,0 0.4798,0 z m 0.95962,0.47696 c 0,0 -0.4798,0.47696 -0.4798,0.47696 0,0 0,-0.47696 0,-0.47696 0,0 0.4798,0 0.4798,0 z m 0.95962,0.47696 c 0,0 -0.47981,0.476959 -0.47981,0.476959 0,0 0,-0.476959 0,-0.476959 0,0 0.47981,0 0.47981,0 z m 0.9596,0.476959 c 0,0 -0.4798,0.476961 -0.4798,0.476961 0,0 0,-0.476961 0,-0.476961 0,0 0.4798,0 0.4798,0 z m 26.86913,17.008396 c 0,0 9.79761,8.179867 9.79761,8.179867 0.77729,0.209861 1.84726,0.08584 2.67732,0 7.48496,0.238481 13.02673,5.9143 17.06669,11.537663 8.43018,11.728443 12.74364,25.293183 16.21742,39.110718 1.77049,7.03993 2.9652,14.25157 3.73769,21.4632 0.23512,2.17971 1.09875,6.69175 0.40305,8.58528 -0.46542,-5.50888 -4.63493,-17.40905 -6.69329,-22.89408 -8.56934,-22.851155 -23.56326,-45.549684 -41.76708,-61.923724 -5.33064,-4.793443 -10.8676,-9.362719 -16.7932,-13.42642 -2.61014,-1.7886 -8.19508,-4.817296 -10.07592,-6.686979 8.49736,3.639205 18.15106,10.364341 25.42971,16.054475 z m -89.24385,-8.423114 c 1.70331,0.643895 3.66571,0.930072 4.79806,2.38003 0,0 -9.59612,0 -9.59612,0 -2.33185,0.03339 -7.12031,1.07316 -9.02993,0 -1.40584,-0.801293 -3.11394,-3.801372 -3.92482,-5.241791 4.46219,0.205093 13.69366,1.330718 17.75281,2.861761 z m 7.67689,0 c 0,0 -0.47981,0.476959 -0.47981,0.476959 0,0 0,-0.476959 0,-0.476959 0,0 0.47981,0 0.47981,0 z m -0.47981,4.769604 c 7.34103,0.0095 12.31181,2.899917 18.71241,6.081232 11.49135,5.713986 22.47891,12.734837 32.14699,21.17703 5.38822,4.712365 8.39659,7.788761 12.99313,13.283331 1.05557,1.26395 3.64652,4.10663 3.70889,5.72353 0.0431,1.31164 -1.52097,3.65351 -2.24068,4.7696 -2.45181,3.782277 -5.13392,7.512115 -8.02715,10.970075 -10.30623,12.33896 -18.91393,18.34388 -30.42446,28.69868 -2.96521,2.66621 -9.73526,10.58375 -11.99515,11.84292 1.04116,-5.67105 2.38943,-11.89538 2.39902,-17.64751 0,0 0,-9.53921 0,-9.53921 -0.0143,-10.41204 -4.30385,-23.795525 -9.26504,-32.910235 0,0 -18.88995,-29.571526 -18.88995,-29.571526 -1.78008,-2.804523 -6.37662,-9.396108 -7.35062,-11.924 0,0 18.23261,-0.953917 18.23261,-0.953917 z m 35.98542,12.400955 c 0,0 -0.4798,0.476962 -0.4798,0.476962 0,0 0,-0.476962 0,-0.476962 0,0 0.4798,0 0.4798,0 z m 1.43941,0.953916 c 0,0 -0.4798,0.476963 -0.4798,0.476963 0,0 0,-0.476963 0,-0.476963 0,0 0.4798,0 0.4798,0 z m 34.06621,37.202892 c 6.00717,8.957305 11.79841,19.383655 15.35377,29.571515 -7.1587,1.88399 -10.77643,2.28464 -17.75279,5.84752 -15.50733,7.91754 -27.36333,23.0658 -32.6124,39.46369 -10.22946,31.96109 5.80565,69.54554 38.84986,80.35822 6.83243,2.23694 11.15068,2.63282 18.23261,2.63282 -2.40383,4.08755 -8.70367,9.43427 -12.47495,12.59652 -9.18347,7.7029 -17.90634,13.10686 -28.78834,18.07678 -3.71368,1.6932 -7.51375,3.69168 -11.51532,4.62174 0,0 -7.47537,-9.06224 -7.47537,-9.06224 -6.19429,-7.89369 -12.56132,-16.88438 -17.24421,-25.75584 -12.8348,-24.33927 -15.42574,-48.25882 -8.9292,-74.88273 1.84246,-7.5455 3.03238,-16.94639 7.4226,-23.37104 15.29141,-22.37419 41.85825,-33.8737 55.97412,-60.096955 0,0 0.95962,0 0.95962,0 z"
     id="Selection #1-1"
     inkscape:connector-curvature="0"
     style="fill:#93d200;fill-opacity:1;stroke:#000000;stroke-width:0.47838068;stroke-opacity:0"
     inkscape:export-filename="/home/rory/sourcecode/cabbageaudio/cabbage/Images/CabbageLogo3.png"
     inkscape:export-xdpi="90"
     inkscape:export-ydpi="90" />
  <rect
     style="opacity:0;fill:#ff0000;fill-opacity:1;stroke:#000000;stroke-width:1.3599993;stroke-linejoin:round;stroke-miterlimit:4;stroke-opacity:1;stroke-dasharray:none"
     id="rect3870"
     width="211.78569"
     height="70.098068"
     x="53.692123"
     y="390.0979"
     rx="5.58079" />
</svg>
