<?xml version="1.0" encoding="UTF-8" standalone="no"?>
<svg
   xmlns:dc="http://purl.org/dc/elements/1.1/"
   xmlns:cc="http://creativecommons.org/ns#"
   xmlns:rdf="http://www.w3.org/1999/02/22-rdf-syntax-ns#"
   xmlns:svg="http://www.w3.org/2000/svg"
   xmlns="http://www.w3.org/2000/svg"
   xmlns:sodipodi="http://sodipodi.sourceforge.net/DTD/sodipodi-0.dtd"
   xmlns:inkscape="http://www.inkscape.org/namespaces/inkscape"
   width="200"
   height="200"
   viewBox="0 0 159.99989 159.99991"
   id="svg2"
   version="1.1"
   inkscape:version="0.91 r13725"
   sodipodi:docname="CabbageProjectButtonEffect.svg"
   inkscape:export-filename="/home/rory/sourcecode/Cabbage2/Images/CabbageProjectButtonInstrument.png"
   inkscape:export-xdpi="165.8"
   inkscape:export-ydpi="165.8">
  <metadata
     id="metadata9">
    <rdf:RDF>
      <cc:Work
         rdf:about="">
        <dc:format>image/svg+xml</dc:format>
        <dc:type
           rdf:resource="http://purl.org/dc/dcmitype/StillImage" />
        <dc:title></dc:title>
      </cc:Work>
    </rdf:RDF>
  </metadata>
  <defs
     id="defs7" />
  <sodipodi:namedview
     pagecolor="#ffffff"
     bordercolor="#666666"
     borderopacity="1"
     objecttolerance="10"
     gridtolerance="10"
     guidetolerance="10"
     inkscape:pageopacity="0"
     inkscape:pageshadow="2"
     inkscape:window-width="1920"
     inkscape:window-height="1032"
     id="namedview5"
     showgrid="false"
     inkscape:zoom="1"
     inkscape:cx="114.42244"
     inkscape:cy="86.69641"
     inkscape:window-x="0"
     inkscape:window-y="0"
     inkscape:window-maximized="1"
     inkscape:current-layer="svg2" />
  <g
     id="g4588"
     transform="matrix(0.25677931,0,0,0.25677928,17.28644,19.199999)"
     inkscape:export-xdpi="165.8"
     inkscape:export-ydpi="165.8">
    <g
       id="g4548">
      <path
         id="path4550"
         d="m 400.85,181 0,-18.3 C 400.85,118.9 385.35,78.2 357.25,48 328.45,17 288.85,0 245.65,0 l -15.1,0 c -43.2,0 -82.8,17 -111.6,48 -28.1,30.2 -43.6,70.9 -43.6,114.7 l 0,18.3 c -34.1,2.3 -61.2,30.7 -61.2,65.4 l 0,28.6 c 0,36.1 29.4,65.5 65.5,65.5 l 36.9,0 c 6.6,0 12,-5.4 12,-12 l 0,-135.7 c 0,-6.6 -5.4,-12 -12,-12 l -17.2,0 0,-18.1 C 99.35,83.6 155.75,24 230.45,24 l 15.1,0 c 74.8,0 131.1,59.6 131.1,138.7 l 0,18.1 -17.2,0 c -6.6,0 -12,5.4 -12,12 l 0,135.6 c 0,6.6 5.4,12 12,12 l 16.8,0 c -4.9,62.6 -48,77.1 -68,80.4 -5.5,-16.9 -21.4,-29.1 -40.1,-29.1 l -30,0 c -23.2,0 -42.1,18.9 -42.1,42.1 0,23.2 18.9,42.2 42.1,42.2 l 30.1,0 c 19.4,0 35.7,-13.2 40.6,-31 9.8,-1.4 25.3,-4.9 40.7,-13.9 21.7,-12.7 47.4,-38.6 50.8,-90.8 34.3,-2.1 61.5,-30.6 61.5,-65.4 l 0,-28.6 c 0.1,-34.6 -26.9,-63.1 -61,-65.3 z m -296.1,135.4 -24.9,0 c -22.9,0 -41.5,-18.6 -41.5,-41.5 l 0,-28.6 c 0,-22.9 18.6,-41.5 41.5,-41.5 l 24.9,0 0,111.6 z m 163.5,135.6 -30.1,0 c -10,0 -18.1,-8.1 -18.1,-18.1 0,-10 8.1,-18.1 18.1,-18.1 l 30.1,0 c 10,0 18.1,8.1 18.1,18.1 0,10 -8.1,18.1 -18.1,18.1 z m 169.7,-177.1 c 0,22.9 -18.6,41.5 -41.5,41.5 l -24.9,0 0,-111.6 24.9,0 c 22.9,0 41.5,18.6 41.5,41.5 l 0,28.6 z"
         inkscape:connector-curvature="0" />
    </g>
    <g
       id="g4552" />
    <g
       id="g4554" />
    <g
       id="g4556" />
    <g
       id="g4558" />
    <g
       id="g4560" />
    <g
       id="g4562" />
    <g
       id="g4564" />
    <g
       id="g4566" />
    <g
       id="g4568" />
    <g
       id="g4570" />
    <g
       id="g4572" />
    <g
       id="g4574" />
    <g
       id="g4576" />
    <g
       id="g4578" />
    <g
       id="g4580" />
  </g>
</svg>
