<?xml version="1.0" encoding="UTF-8" standalone="no"?>
<!-- Generator: Adobe Illustrator 18.1.1, SVG Export Plug-In . SVG Version: 6.00 Build 0)  -->

<svg
   xmlns:dc="http://purl.org/dc/elements/1.1/"
   xmlns:cc="http://creativecommons.org/ns#"
   xmlns:rdf="http://www.w3.org/1999/02/22-rdf-syntax-ns#"
   xmlns:svg="http://www.w3.org/2000/svg"
   xmlns="http://www.w3.org/2000/svg"
   xmlns:sodipodi="http://sodipodi.sourceforge.net/DTD/sodipodi-0.dtd"
   xmlns:inkscape="http://www.inkscape.org/namespaces/inkscape"
   version="1.1"
   id="Capa_1"
   x="0px"
   y="0px"
   viewBox="0 0 308.559 308.559"
   style="enable-background:new 0 0 308.559 308.559;"
   xml:space="preserve"
   inkscape:version="0.91 r13725"
   sodipodi:docname="ColourSettingsButton.svg"
   inkscape:export-filename="/home/rory/sourcecode/cabaiste/Images/ColourSettingsButton.png"
   inkscape:export-xdpi="90"
   inkscape:export-ydpi="90"><metadata
     id="metadata4395"><rdf:RDF><cc:Work
         rdf:about=""><dc:format>image/svg+xml</dc:format><dc:type
           rdf:resource="http://purl.org/dc/dcmitype/StillImage" /><dc:title /></cc:Work></rdf:RDF></metadata><defs
     id="defs4393" /><sodipodi:namedview
     pagecolor="#ffffff"
     bordercolor="#666666"
     borderopacity="1"
     objecttolerance="10"
     gridtolerance="10"
     guidetolerance="10"
     inkscape:pageopacity="0"
     inkscape:pageshadow="2"
     inkscape:window-width="1920"
     inkscape:window-height="1056"
     id="namedview4391"
     showgrid="false"
     inkscape:zoom="2.1633102"
     inkscape:cx="263.65968"
     inkscape:cy="188.14744"
     inkscape:window-x="0"
     inkscape:window-y="0"
     inkscape:window-maximized="1"
     inkscape:current-layer="Capa_1" /><g
     id="g4361"
     inkscape:export-xdpi="90"
     inkscape:export-ydpi="90" /><g
     id="g4363"
     inkscape:export-xdpi="90"
     inkscape:export-ydpi="90" /><g
     id="g4365"
     inkscape:export-xdpi="90"
     inkscape:export-ydpi="90" /><g
     id="g4367"
     inkscape:export-xdpi="90"
     inkscape:export-ydpi="90" /><g
     id="g4369"
     inkscape:export-xdpi="90"
     inkscape:export-ydpi="90" /><g
     id="g4371"
     inkscape:export-xdpi="90"
     inkscape:export-ydpi="90" /><g
     id="g4373"
     inkscape:export-xdpi="90"
     inkscape:export-ydpi="90" /><g
     id="g4375"
     inkscape:export-xdpi="90"
     inkscape:export-ydpi="90" /><g
     id="g4377"
     inkscape:export-xdpi="90"
     inkscape:export-ydpi="90" /><g
     id="g4379"
     inkscape:export-xdpi="90"
     inkscape:export-ydpi="90" /><g
     id="g4381"
     inkscape:export-xdpi="90"
     inkscape:export-ydpi="90" /><g
     id="g4383"
     inkscape:export-xdpi="90"
     inkscape:export-ydpi="90" /><g
     id="g4385"
     inkscape:export-xdpi="90"
     inkscape:export-ydpi="90" /><g
     id="g4387"
     inkscape:export-xdpi="90"
     inkscape:export-ydpi="90" /><g
     id="g4389"
     inkscape:export-xdpi="90"
     inkscape:export-ydpi="90" /><path
     transform="matrix(0.09549876,0.10795691,-0.10741404,0.09597303,471.42687,-25.986641)"
     inkscape:transform-center-y="-1.1877566"
     inkscape:transform-center-x="1.0255595"
     d="m -194.31418,62.442904 c -17.00213,9.007231 -23.90501,-22.347677 -43.15336,-13.461394 -19.24836,8.886283 -18.04567,47.634182 -37.71369,41.021803 -19.66803,-6.612381 4.30474,-38.104266 -13.96621,-44.964501 -18.27095,-6.860236 -23.44563,38.975395 -36.99552,22.520395 -13.54988,-16.455002 35.80753,-30.535024 35.91664,-52.068958 0.10911,-21.5339333 -52.91575,-10.8496506 -48.80437,-29.816431 4.11137,-18.966781 52.47377,21.8354429 63.23501,2.35703 10.76125,-19.478412 -28.02115,-49.728415 -8.03062,-53.747659 19.99053,-4.019243 -4.53677,46.374576 16.90827,44.41508 21.44505,-1.959495 24.01215,-47.562338 43.79085,-40.518622 19.77871,7.043717 -23.08672,50.974601 -11.95154,65.9196208 11.13517,14.9450192 59.27014,-29.3074998 57.86276,-7.6336875 -1.40738,21.6738137 -31.83756,18.5126697 -33.90141,37.1226877 -2.06386,18.610018 33.80532,19.847404 16.80319,28.854636 z"
     inkscape:randomized="0.2"
     inkscape:rounded="0.43"
     inkscape:flatsided="false"
     sodipodi:arg2="1.2456909"
     sodipodi:arg1="0.79689191"
     sodipodi:r2="40.218803"
     sodipodi:r1="80.437607"
     sodipodi:cy="10.459627"
     sodipodi:cx="-257.5683"
     sodipodi:sides="7"
     id="path5011-3"
     style="opacity:1;fill:#999999;fill-opacity:1;stroke:#000000;stroke-width:0.69401968;stroke-linejoin:miter;stroke-miterlimit:4;stroke-dasharray:none;stroke-dashoffset:0;stroke-opacity:1"
     sodipodi:type="star"
     inkscape:export-xdpi="41.970463"
     inkscape:export-ydpi="41.970463" /><path
     sodipodi:type="star"
     style="opacity:1;fill:#808080;fill-opacity:1;stroke:#000000;stroke-width:0.69401968;stroke-linejoin:miter;stroke-miterlimit:4;stroke-dasharray:none;stroke-dashoffset:0;stroke-opacity:1"
     id="path5013-6"
     sodipodi:sides="5"
     sodipodi:cx="-257.5683"
     sodipodi:cy="10.459627"
     sodipodi:r1="80.437607"
     sodipodi:r2="40.218803"
     sodipodi:arg1="0.79689191"
     sodipodi:arg2="1.4252104"
     inkscape:flatsided="false"
     inkscape:rounded="0.43"
     inkscape:randomized="0.2"
     d="m -194.31418,62.442904 c -19.11094,10.124421 -19.0471,-12.583512 -43.62181,-12.587664 -24.5747,-0.0042 -47.03786,59.36886 -63.81501,44.606617 -16.77715,-14.762245 38.69471,-60.816573 21.35566,-79.021188 -17.33904,-18.2046168 -80.49345,-9.447757 -72.16096,-32.043048 8.33249,-22.595289 64.66464,26.527596 76.76062,4.633229 12.09599,-21.894367 -14.51931,-40.974194 5.79524,-46.457184 20.31454,-5.482989 2.3724,31.50321 21.85821,39.86758 19.48581,8.364371 56.45715,-20.348691 70.15848,-3.261727 13.70132,17.0869628 -49.6723,15.5702817 -46.71431,36.320174 2.958,20.749894 49.49482,37.818789 30.38388,47.943211 z"
     inkscape:transform-center-x="1.0255675"
     inkscape:transform-center-y="-1.1877584"
     transform="matrix(0.09549876,0.10795691,-0.10741404,0.09597303,455.77292,-35.810136)"
     inkscape:export-xdpi="41.970463"
     inkscape:export-ydpi="41.970463" /><path
     sodipodi:type="star"
     style="opacity:1;fill:#666666;fill-opacity:1;stroke:#000000;stroke-width:0.69401968;stroke-linejoin:miter;stroke-miterlimit:4;stroke-dasharray:none;stroke-dashoffset:0;stroke-opacity:1"
     id="path5009-7"
     sodipodi:sides="8"
     sodipodi:cx="-257.5683"
     sodipodi:cy="10.459627"
     sodipodi:r1="80.437607"
     sodipodi:r2="40.218803"
     sodipodi:arg1="0.79689191"
     sodipodi:arg2="1.189591"
     inkscape:flatsided="false"
     inkscape:rounded="0.43"
     inkscape:randomized="0.122"
     d="m -197.05729,64.605325 c -15.73207,10.739863 -24.96897,-34.878763 -42.75994,-24.807782 -17.79097,10.070981 -1.53031,58.714517 -22.34257,58.912508 -20.81226,0.19799 9.52582,-49.568695 -8.77309,-56.37887 -18.29892,-6.810176 -22.39252,42.993958 -38.52436,30.403193 -16.13184,-12.590765 30.24009,-39.59815 20.07065,-55.744683 -10.16944,-16.14653331 -58.9966,11.170675 -58.38492,-9.1362291 0.61167,-20.3069049 51.17747,-1.0410727 59.46821,-17.7768272 8.29075,-16.7357547 -46.63083,-19.4352607 -34.77129,-34.7185977 11.85955,-15.283338 27.10528,26.257267 47.04931,21.387304 19.94404,-4.869963 2.19849,-40.098322 22.34258,-39.285733 20.14408,0.81259 -0.65289,24.036212 17.60928,29.897715 18.26217,5.861504 30.47592,-35.035475 45.02525,-22.301506 14.54933,12.733968 -27.99183,24.868016 -19.74745,43.619495 8.24438,18.7514784 30.15583,1.5100693 32.27714,20.1836695 2.12131,18.6736005 -23.30464,-2.4251541 -32.32257,14.0928595 -9.01793,16.518013 29.51584,30.913622 13.78377,41.653484 z"
     inkscape:transform-center-x="1.0255676"
     inkscape:transform-center-y="-1.1877603"
     transform="matrix(0.09549876,0.10795691,-0.10741404,0.09597303,468.85062,-38.847368)"
     inkscape:export-xdpi="41.970463"
     inkscape:export-ydpi="41.970463" /><ellipse
     style="opacity:1;fill:#ffffff;fill-opacity:1;stroke:#000000;stroke-width:2;stroke-linejoin:miter;stroke-miterlimit:4;stroke-dasharray:none;stroke-dashoffset:0;stroke-opacity:1"
     id="path5013"
     cx="41.834038"
     cy="54.781235"
     rx="13.174255"
     ry="12.480873"
     inkscape:export-xdpi="90"
     inkscape:export-ydpi="90" /><g
     inkscape:export-ydpi="90"
     inkscape:export-xdpi="90"
     style="fill:#000000;stroke-width:0.40869361;stroke-miterlimit:4;stroke-dasharray:none"
     transform="matrix(0.26683807,0,0,0.26885226,14.108159,2.7869904)"
     id="g5017"><g
       style="fill:#000000;stroke-width:0.40869361;stroke-miterlimit:4;stroke-dasharray:none"
       id="g5019"><path
         style="fill:#000000;stroke-width:0.40869361;stroke-miterlimit:4;stroke-dasharray:none"
         id="path5021"
         d="M 229.5,0 C 102,0 0,102 0,229.5 0,357 102,459 229.5,459 c 20.4,0 38.25,-17.85 38.25,-38.25 0,-10.2 -2.55,-17.85 -10.2,-25.5 -5.1,-7.65 -10.2,-15.3 -10.2,-25.5 0,-20.4 17.851,-38.25 38.25,-38.25 l 45.9,0 C 402.9,331.5 459,275.4 459,204 459,91.8 357,0 229.5,0 Z M 89.25,229.5 C 68.85,229.5 51,211.65 51,191.25 51,170.85 68.85,153 89.25,153 c 20.4,0 38.25,17.85 38.25,38.25 0,20.4 -17.85,38.25 -38.25,38.25 z m 76.5,-102 c -20.4,0 -38.25,-17.85 -38.25,-38.25 0,-20.4 17.85,-38.25 38.25,-38.25 20.4,0 38.25,17.85 38.25,38.25 0,20.4 -17.85,38.25 -38.25,38.25 z m 127.5,0 C 272.85,127.5 255,109.65 255,89.25 255,68.85 272.85,51 293.25,51 c 20.4,0 38.25,17.85 38.25,38.25 0,20.4 -17.85,38.25 -38.25,38.25 z m 76.5,102 c -20.4,0 -38.25,-17.85 -38.25,-38.25 0,-20.4 17.85,-38.25 38.25,-38.25 20.4,0 38.25,17.85 38.25,38.25 0,20.4 -17.85,38.25 -38.25,38.25 z"
         inkscape:connector-curvature="0" /></g></g><g
     id="g5023"
     transform="matrix(0.25475298,0,0,0.25045097,20.117474,7.9974032)"
     style="fill:#000000;stroke-width:0.40869361;stroke-miterlimit:4;stroke-dasharray:none"
     inkscape:export-xdpi="90"
     inkscape:export-ydpi="90"><g
       id="g5025"
       style="fill:#000000;stroke-width:0.40869361;stroke-miterlimit:4;stroke-dasharray:none"><path
         inkscape:connector-curvature="0"
         d="M 229.5,0 C 102,0 0,102 0,229.5 0,357 102,459 229.5,459 c 20.4,0 38.25,-17.85 38.25,-38.25 0,-10.2 -2.55,-17.85 -10.2,-25.5 -5.1,-7.65 -10.2,-15.3 -10.2,-25.5 0,-20.4 17.851,-38.25 38.25,-38.25 l 45.9,0 C 402.9,331.5 459,275.4 459,204 459,91.8 357,0 229.5,0 Z M 89.25,229.5 C 68.85,229.5 51,211.65 51,191.25 51,170.85 68.85,153 89.25,153 c 20.4,0 38.25,17.85 38.25,38.25 0,20.4 -17.85,38.25 -38.25,38.25 z m 76.5,-102 c -20.4,0 -38.25,-17.85 -38.25,-38.25 0,-20.4 17.85,-38.25 38.25,-38.25 20.4,0 38.25,17.85 38.25,38.25 0,20.4 -17.85,38.25 -38.25,38.25 z m 127.5,0 C 272.85,127.5 255,109.65 255,89.25 255,68.85 272.85,51 293.25,51 c 20.4,0 38.25,17.85 38.25,38.25 0,20.4 -17.85,38.25 -38.25,38.25 z m 76.5,102 c -20.4,0 -38.25,-17.85 -38.25,-38.25 0,-20.4 17.85,-38.25 38.25,-38.25 20.4,0 38.25,17.85 38.25,38.25 0,20.4 -17.85,38.25 -38.25,38.25 z"
         id="path5027"
         style="fill:#000000;stroke-width:0.40869361;stroke-miterlimit:4;stroke-dasharray:none" /></g></g><g
     id="g4932"
     transform="matrix(0.24367499,0,0,0.24468208,19.192959,7.2585545)"
     style="fill:#ffffff;stroke-width:0.40869361;stroke-miterlimit:4;stroke-dasharray:none"
     inkscape:export-xdpi="90"
     inkscape:export-ydpi="90"><g
       id="palette"
       style="fill:#ffffff;stroke-width:0.40869361;stroke-miterlimit:4;stroke-dasharray:none"><path
         inkscape:connector-curvature="0"
         d="M 229.5,0 C 102,0 0,102 0,229.5 0,357 102,459 229.5,459 c 20.4,0 38.25,-17.85 38.25,-38.25 0,-10.2 -2.55,-17.85 -10.2,-25.5 -5.1,-7.65 -10.2,-15.3 -10.2,-25.5 0,-20.4 17.851,-38.25 38.25,-38.25 l 45.9,0 C 402.9,331.5 459,275.4 459,204 459,91.8 357,0 229.5,0 Z M 89.25,229.5 C 68.85,229.5 51,211.65 51,191.25 51,170.85 68.85,153 89.25,153 c 20.4,0 38.25,17.85 38.25,38.25 0,20.4 -17.85,38.25 -38.25,38.25 z m 76.5,-102 c -20.4,0 -38.25,-17.85 -38.25,-38.25 0,-20.4 17.85,-38.25 38.25,-38.25 20.4,0 38.25,17.85 38.25,38.25 0,20.4 -17.85,38.25 -38.25,38.25 z m 127.5,0 C 272.85,127.5 255,109.65 255,89.25 255,68.85 272.85,51 293.25,51 c 20.4,0 38.25,17.85 38.25,38.25 0,20.4 -17.85,38.25 -38.25,38.25 z m 76.5,102 c -20.4,0 -38.25,-17.85 -38.25,-38.25 0,-20.4 17.85,-38.25 38.25,-38.25 20.4,0 38.25,17.85 38.25,38.25 0,20.4 -17.85,38.25 -38.25,38.25 z"
         id="path4935"
         style="fill:#ffffff;stroke-width:0.40869361;stroke-miterlimit:4;stroke-dasharray:none" /></g></g><g
     id="g4937"
     transform="matrix(0.24468208,0,0,0.24468208,19.192959,7.4095361)" /><g
     id="g4939"
     transform="matrix(0.24468208,0,0,0.24468208,19.192959,7.4095361)" /><g
     id="g4941"
     transform="matrix(0.24468208,0,0,0.24468208,19.192959,7.4095361)" /><g
     id="g4943"
     transform="matrix(0.24468208,0,0,0.24468208,19.192959,7.4095361)" /><g
     id="g4945"
     transform="matrix(0.24468208,0,0,0.24468208,19.192959,7.4095361)" /><g
     id="g4947"
     transform="matrix(0.24468208,0,0,0.24468208,19.192959,7.4095361)" /><g
     id="g4949"
     transform="matrix(0.24468208,0,0,0.24468208,19.192959,7.4095361)" /><g
     id="g4951"
     transform="matrix(0.24468208,0,0,0.24468208,19.192959,7.4095361)" /><g
     id="g4953"
     transform="matrix(0.24468208,0,0,0.24468208,19.192959,7.4095361)" /><g
     id="g4955"
     transform="matrix(0.24468208,0,0,0.24468208,19.192959,7.4095361)" /><g
     id="g4957"
     transform="matrix(0.24468208,0,0,0.24468208,19.192959,7.4095361)" /><g
     id="g4959"
     transform="matrix(0.24468208,0,0,0.24468208,19.192959,7.4095361)" /><g
     id="g4961"
     transform="matrix(0.24468208,0,0,0.24468208,19.192959,7.4095361)" /><g
     id="g4963"
     transform="matrix(0.24468208,0,0,0.24468208,19.192959,7.4095361)" /><g
     id="g4965"
     transform="matrix(0.24468208,0,0,0.24468208,19.192959,7.4095361)" /></svg>