<?xml version="1.0" encoding="UTF-8" standalone="no"?>
<!-- Generator: Adobe Illustrator 19.0.0, SVG Export Plug-In . SVG Version: 6.00 Build 0)  -->

<svg
   xmlns:dc="http://purl.org/dc/elements/1.1/"
   xmlns:cc="http://creativecommons.org/ns#"
   xmlns:rdf="http://www.w3.org/1999/02/22-rdf-syntax-ns#"
   xmlns:svg="http://www.w3.org/2000/svg"
   xmlns="http://www.w3.org/2000/svg"
   xmlns:sodipodi="http://sodipodi.sourceforge.net/DTD/sodipodi-0.dtd"
   xmlns:inkscape="http://www.inkscape.org/namespaces/inkscape"
   version="1.1"
   id="Capa_1"
   x="0px"
   y="0px"
   viewBox="0 0 54 54"
   style="enable-background:new 0 0 54 54;"
   xml:space="preserve"
   inkscape:version="0.91 r13725"
   sodipodi:docname="SettingsButton.svg"><metadata
     id="metadata43"><rdf:RDF><cc:Work
         rdf:about=""><dc:format>image/svg+xml</dc:format><dc:type
           rdf:resource="http://purl.org/dc/dcmitype/StillImage" /><dc:title></dc:title></cc:Work></rdf:RDF></metadata><defs
     id="defs41" /><sodipodi:namedview
     pagecolor="#ffffff"
     bordercolor="#666666"
     borderopacity="1"
     objecttolerance="10"
     gridtolerance="10"
     guidetolerance="10"
     inkscape:pageopacity="0"
     inkscape:pageshadow="2"
     inkscape:window-width="1366"
     inkscape:window-height="744"
     id="namedview39"
     showgrid="false"
     inkscape:zoom="4.3703704"
     inkscape:cx="23.567797"
     inkscape:cy="27"
     inkscape:window-x="0"
     inkscape:window-y="0"
     inkscape:window-maximized="1"
     inkscape:current-layer="Capa_1" /><g
     id="g4324"
     transform="translate(1.1435653,0.91475408)" /><g
     id="g4326"
     transform="translate(1.1435653,0.91475408)" /><g
     id="g4328"
     transform="translate(1.1435653,0.91475408)" /><g
     id="g4330"
     transform="translate(1.1435653,0.91475408)" /><g
     id="g4332"
     transform="translate(1.1435653,0.91475408)" /><g
     id="g4334"
     transform="translate(1.1435653,0.91475408)" /><g
     id="g4336"
     transform="translate(1.1435653,0.91475408)" /><g
     id="g4338"
     transform="translate(1.1435653,0.91475408)" /><g
     id="g4340"
     transform="translate(1.1435653,0.91475408)" /><g
     id="g4342"
     transform="translate(1.1435653,0.91475408)" /><g
     id="g4344"
     transform="translate(1.1435653,0.91475408)" /><g
     id="g4346"
     transform="translate(1.1435653,0.91475408)" /><g
     id="g4348"
     transform="translate(1.1435653,0.91475408)" /><g
     id="g4350"
     transform="translate(1.1435653,0.91475408)" /><g
     id="g4352"
     transform="translate(1.1435653,0.91475408)" /><circle
     style="opacity:1;fill:#ffffff;fill-opacity:1;stroke:#000000;stroke-width:0;stroke-linejoin:miter;stroke-miterlimit:4;stroke-dasharray:none;stroke-dashoffset:0;stroke-opacity:1"
     id="path4403"
     cx="28.368647"
     cy="27.911016"
     r="22.309322"
     inkscape:export-xdpi="90"
     inkscape:export-ydpi="90" /><path
     id="path4322"
     d="m 28.143565,17.914754 c -5.514,0 -10,4.486 -10,10 0,5.514 4.486,10 10,10 5.514,0 10,-4.486 10,-10 0,-5.514 -4.486,-10 -10,-10 z m 0,18 c -4.411,0 -8,-3.589 -8,-8 0,-4.411 3.589,-8 8,-8 4.411,0 8,3.589 8,8 0,4.411 -3.589,8 -8,8 z"
     inkscape:connector-curvature="0"
     inkscape:export-xdpi="90"
     inkscape:export-ydpi="90" /><rect
     style="opacity:1;fill:#ffffff;fill-opacity:1;stroke:#000000;stroke-width:0;stroke-linejoin:miter;stroke-miterlimit:4;stroke-dasharray:none;stroke-dashoffset:0;stroke-opacity:1"
     id="rect4405"
     width="8.2372885"
     height="3.4322035"
     x="24.025425"
     y="2.5169494"
     inkscape:export-xdpi="90"
     inkscape:export-ydpi="90" /><rect
     y="49.881355"
     x="23.796612"
     height="3.4322035"
     width="9.3813562"
     id="rect4407"
     style="opacity:1;fill:#ffffff;fill-opacity:1;stroke:#000000;stroke-width:0;stroke-linejoin:miter;stroke-miterlimit:4;stroke-dasharray:none;stroke-dashoffset:0;stroke-opacity:1"
     inkscape:export-xdpi="90"
     inkscape:export-ydpi="90" /><rect
     style="opacity:1;fill:#ffffff;fill-opacity:1;stroke:#000000;stroke-width:0;stroke-linejoin:miter;stroke-miterlimit:4;stroke-dasharray:none;stroke-dashoffset:0;stroke-opacity:1"
     id="rect4409"
     width="8.2372885"
     height="3.4322035"
     x="-35.031738"
     y="48.325478"
     transform="matrix(-0.05662942,-0.99839527,0.99839527,-0.05662942,0,0)"
     inkscape:transform-center-x="-4.8050847"
     inkscape:transform-center-y="-1.8305085"
     inkscape:export-xdpi="90"
     inkscape:export-ydpi="90" /><rect
     inkscape:transform-center-y="-1.8305085"
     inkscape:transform-center-x="-9.6060492"
     transform="matrix(-0.11267021,-0.99363244,0.99959775,-0.02836097,0,0)"
     y="-0.55794322"
     x="-32.429562"
     height="6.85321"
     width="8.2767725"
     id="rect4411"
     style="opacity:1;fill:#ffffff;fill-opacity:1;stroke:#000000;stroke-width:0;stroke-linejoin:miter;stroke-miterlimit:4;stroke-dasharray:none;stroke-dashoffset:0;stroke-opacity:1"
     inkscape:export-xdpi="90"
     inkscape:export-ydpi="90" /><rect
     style="opacity:1;fill:#ffffff;fill-opacity:1;stroke:#000000;stroke-width:0;stroke-linejoin:miter;stroke-miterlimit:4;stroke-dasharray:none;stroke-dashoffset:0;stroke-opacity:1"
     id="rect4413"
     width="8.2767725"
     height="6.85321"
     x="-2.3632898"
     y="13.934918"
     transform="matrix(0.72191341,-0.6919834,0.62855014,0.77776907,0,0)"
     inkscape:transform-center-x="0.72955304"
     inkscape:transform-center-y="-0.19542968"
     inkscape:export-xdpi="90"
     inkscape:export-ydpi="90" /><rect
     inkscape:transform-center-y="-0.21160493"
     inkscape:transform-center-x="0.77825454"
     transform="matrix(0.71674105,-0.69733942,0.62287693,0.78231984,0,0)"
     y="58.321102"
     x="2.8926654"
     height="7.377295"
     width="8.8930206"
     id="rect4415"
     style="opacity:1;fill:#ffffff;fill-opacity:1;stroke:#000000;stroke-width:0;stroke-linejoin:miter;stroke-miterlimit:4;stroke-dasharray:none;stroke-dashoffset:0;stroke-opacity:1"
     inkscape:export-xdpi="90"
     inkscape:export-ydpi="90" /><rect
     style="opacity:1;fill:#ffffff;fill-opacity:1;stroke:#000000;stroke-width:0;stroke-linejoin:miter;stroke-miterlimit:4;stroke-dasharray:none;stroke-dashoffset:0;stroke-opacity:1"
     id="rect4417"
     width="10.056947"
     height="8.3137217"
     x="19.519295"
     y="34.98959"
     transform="matrix(0.726335,-0.68734087,0.6334254,0.77380376,0,0)"
     inkscape:transform-center-x="0.89189434"
     inkscape:transform-center-y="-0.23587008"
     inkscape:export-xdpi="90"
     inkscape:export-ydpi="90" /><rect
     inkscape:transform-center-y="-0.23587008"
     inkscape:transform-center-x="0.89189434"
     transform="matrix(0.726335,-0.68734087,0.6334254,0.77380376,0,0)"
     y="36.125664"
     x="-21.47961"
     height="8.3137217"
     width="10.056947"
     id="rect4419"
     style="opacity:1;fill:#ffffff;fill-opacity:1;stroke:#000000;stroke-width:0;stroke-linejoin:miter;stroke-miterlimit:4;stroke-dasharray:none;stroke-dashoffset:0;stroke-opacity:1"
     inkscape:export-xdpi="90"
     inkscape:export-ydpi="90" /><path
     id="path4320"
     d="m 52.363565,21.914754 -2.018,0 c -0.515,-1.912 -1.272,-3.742 -2.26,-5.457 l 1.426,-1.426 c 0.525,-0.525 0.814,-1.224 0.814,-1.966 0,-0.743 -0.289,-1.441 -0.814,-1.967 l -4.553,-4.5529999 c -1.05,-1.049 -2.881,-1.051 -3.933,0 l -1.426,1.426 c -1.716,-0.987 -3.545,-1.744 -5.456,-2.259 l 0,-2.018 c 0,-1.533 -1.247,-2.78000002 -2.78,-2.78000002 l -6.44,0 c -1.533,0 -2.78,1.24700002 -2.78,2.78000002 l 0,2.018 c -1.911,0.515 -3.74,1.272 -5.457,2.26 l -1.426,-1.426 c -1.051,-1.052 -2.883,-1.05 -3.933,0 L 6.7745653,11.099754 c -0.525,0.525 -0.814,1.224 -0.814,1.967 0,0.742 0.289,1.44 0.814,1.966 l 1.426,1.426 c -0.987,1.714 -1.745,3.544 -2.259,5.456 l -2.018,0 c -1.533,0 -2.78,1.247 -2.78,2.78 l 0,6.439 c 0,1.534 1.247,2.781 2.78,2.781 l 2.018,0 c 0.515,1.911 1.272,3.74 2.26,5.457 l -1.426,1.426 c -0.525,0.525 -0.814,1.224 -0.814,1.966 0,0.743 0.289,1.441 0.814,1.967 l 4.5529997,4.553 c 1.05,1.051 2.882,1.052 3.933,0 l 1.426,-1.426 c 1.717,0.987 3.546,1.745 5.457,2.26 l 0,2.018 c 0,1.533 1.247,2.78 2.78,2.78 l 6.439,0 c 1.533,0 2.78,-1.247 2.78,-2.78 l 0,-2.018 c 1.911,-0.515 3.74,-1.272 5.457,-2.26 l 1.426,1.426 c 1.052,1.052 2.882,1.05 3.933,0 l 4.553,-4.553 c 0.525,-0.525 0.814,-1.224 0.814,-1.967 0,-0.742 -0.289,-1.44 -0.814,-1.966 l -1.426,-1.426 c 0.987,-1.717 1.745,-3.546 2.26,-5.457 l 2.018,0 c 1.533,0 2.78,-1.247 2.78,-2.78 l 0,-6.44 c -10e-4,-1.533 -1.248,-2.78 -2.781,-2.78 z m 0.78,9.22 c 0,0.43 -0.35,0.78 -0.78,0.78 l -3.592,0 -0.18,0.773 c -0.521,2.237 -1.399,4.36 -2.613,6.311 l -0.42,0.674 2.539,2.539 c 0.305,0.305 0.305,0.8 0,1.104 l -4.553,4.553 c -0.304,0.304 -0.799,0.306 -1.104,0 l -2.539,-2.539 -0.674,0.42 c -1.95,1.214 -4.073,2.093 -6.311,2.613 l -0.773,0.18 0,3.592 c 0,0.43 -0.35,0.78 -0.78,0.78 l -6.44,0 c -0.43,0 -0.78,-0.35 -0.78,-0.78 l 0,-3.592 -0.773,-0.18 c -2.237,-0.521 -4.36,-1.399 -6.311,-2.613 l -0.674,-0.42 -2.539,2.539 c -0.306,0.306 -0.801,0.304 -1.104,0 l -4.5529997,-4.553 c -0.305,-0.305 -0.305,-0.8 0,-1.104 l 2.5389997,-2.539 -0.42,-0.674 c -1.2139997,-1.95 -2.0929997,-4.073 -2.6129997,-6.311 l -0.18,-0.773 -3.592,0 c -0.43,0 -0.78,-0.35 -0.78,-0.78 l 0,-6.44 c 0,-0.43 0.35,-0.78 0.78,-0.78 l 3.592,0 0.18,-0.773 c 0.521,-2.238 1.399,-4.361 2.6129997,-6.311 l 0.42,-0.674 -2.5389997,-2.539 c -0.305,-0.305 -0.305,-0.8 0,-1.104 L 12.742565,7.9607541 c 0.304,-0.304 0.799,-0.306 1.104,0 l 2.539,2.5389999 0.674,-0.42 c 1.95,-1.2139999 4.073,-2.0929999 6.311,-2.6129999 l 0.773,-0.18 0,-3.592 c 0,-0.43 0.35,-0.78 0.78,-0.78 l 6.439,0 c 0.431,0 0.781,0.35 0.781,0.78 l 0,3.592 0.773,0.18 c 2.237,0.521 4.36,1.399 6.311,2.6129999 l 0.674,0.42 2.539,-2.5389999 c 0.306,-0.306 0.801,-0.304 1.104,0 l 4.553,4.5529999 c 0.305,0.305 0.305,0.8 0,1.104 l -2.539,2.539 0.42,0.674 c 1.214,1.949 2.093,4.072 2.613,6.311 l 0.18,0.773 3.592,0 c 0.43,0 0.78,0.35 0.78,0.78 l 0,6.44 z"
     inkscape:connector-curvature="0"
     inkscape:export-xdpi="90"
     inkscape:export-ydpi="90" /></svg>