<?xml version="1.0" encoding="utf-8"?>
<!-- Generator: Adobe Illustrator 16.0.4, SVG Export Plug-In . SVG Version: 6.00 Build 0)  -->
<!DOCTYPE svg PUBLIC "-//W3C//DTD SVG 1.1//EN" "http://www.w3.org/Graphics/SVG/1.1/DTD/svg11.dtd">
<svg version="1.1"
	 id="svg2" xmlns:dc="http://purl.org/dc/elements/1.1/" xmlns:cc="http://creativecommons.org/ns#" xmlns:rdf="http://www.w3.org/1999/02/22-rdf-syntax-ns#" xmlns:svg="http://www.w3.org/2000/svg" xmlns:sodipodi="http://sodipodi.sourceforge.net/DTD/sodipodi-0.dtd" xmlns:inkscape="http://www.inkscape.org/namespaces/inkscape" sodipodi:docname="CabbageProjectButtonInstrument.svg" inkscape:version="0.91 r13725"
	 xmlns="http://www.w3.org/2000/svg" xmlns:xlink="http://www.w3.org/1999/xlink" x="0px" y="0px" width="200px" height="200px"
	 viewBox="0 0 200 200" enable-background="new 0 0 200 200" xml:space="preserve">
<sodipodi:namedview  gridtolerance="10" guidetolerance="10" objecttolerance="10" showgrid="false" inkscape:cy="128.67919" inkscape:cx="28.300674" inkscape:zoom="6.0685714" borderopacity="1" bordercolor="#666666" pagecolor="#ffffff" id="namedview5" inkscape:window-maximized="1" inkscape:window-y="0" inkscape:window-x="0" inkscape:window-height="1056" inkscape:window-width="1920" inkscape:current-layer="svg2" inkscape:pageopacity="0" inkscape:pageshadow="2">
	</sodipodi:namedview>
<path id="rect4824" inkscape:export-ydpi="90" inkscape:export-xdpi="90" fill="#FFFFFF" stroke="#000000" stroke-width="2.88" stroke-linejoin="round" d="
	M-324,10.423h128.621c2.301,0,4.167,1.971,4.167,4.403v105.15c0,2.432-1.865,4.402-4.167,4.402H-324
	c-2.302,0-4.167-1.971-4.167-4.402V14.826C-328.167,12.395-326.301,10.423-324,10.423z"/>
<rect id="rect4903-5-6-9" x="-221.991" y="10.423" inkscape:export-ydpi="90" inkscape:export-xdpi="90" fill="none" stroke="#000000" stroke-width="2.88" stroke-linejoin="round" width="0.932" height="113.393">
</rect>
<rect id="rect4903-5-6-9_1_" x="-289.991" y="10.423" inkscape:export-ydpi="90" inkscape:export-xdpi="90" fill="none" stroke="#000000" stroke-width="2.88" stroke-linejoin="round" width="0.932" height="113.393">
</rect>
<rect id="rect4903-5-6-9_2_" x="-254.991" y="10.423" inkscape:export-ydpi="90" inkscape:export-xdpi="90" fill="none" stroke="#000000" stroke-width="2.88" stroke-linejoin="round" width="0.932" height="113.393">
</rect>
<ellipse fill="none" stroke="#000000" stroke-width="2.88" stroke-linejoin="round" cx="-309.25" cy="104" rx="5.303" ry="5.656"/>
<ellipse fill="none" stroke="#000000" stroke-width="2.88" stroke-linejoin="round" cx="-309.25" cy="78" rx="5.303" ry="5.656"/>
<ellipse fill="none" stroke="#000000" stroke-width="2.88" stroke-linejoin="round" cx="-309.25" cy="52" rx="5.303" ry="5.656"/>
<ellipse fill="none" stroke="#000000" stroke-width="2.88" stroke-linejoin="round" cx="-309.25" cy="26" rx="5.303" ry="5.656"/>
<ellipse fill="none" stroke="#000000" stroke-width="2.88" stroke-linejoin="round" cx="-270.25" cy="92" rx="5.303" ry="5.656"/>
<ellipse fill="none" stroke="#000000" stroke-width="2.88" stroke-linejoin="round" cx="-270.25" cy="66" rx="5.303" ry="5.656"/>
<ellipse fill="none" stroke="#000000" stroke-width="2.88" stroke-linejoin="round" cx="-270.25" cy="40" rx="5.303" ry="5.656"/>
<ellipse fill="none" stroke="#000000" stroke-width="2.88" stroke-linejoin="round" cx="-236.25" cy="105" rx="5.303" ry="5.656"/>
<ellipse fill="none" stroke="#000000" stroke-width="2.88" stroke-linejoin="round" cx="-236.25" cy="79" rx="5.303" ry="5.656"/>
<ellipse fill="none" stroke="#000000" stroke-width="2.88" stroke-linejoin="round" cx="-236.25" cy="53" rx="5.303" ry="5.656"/>
<ellipse fill="none" stroke="#000000" stroke-width="2.88" stroke-linejoin="round" cx="-205.25" cy="77" rx="5.303" ry="5.656"/>
<ellipse fill="none" stroke="#000000" stroke-width="2.88" stroke-linejoin="round" cx="-205.25" cy="51" rx="5.303" ry="5.656"/>
<ellipse fill="none" stroke="#000000" stroke-width="2.88" stroke-linejoin="round" cx="-205.25" cy="25" rx="5.303" ry="5.656"/>
<line fill="none" stroke="#000000" stroke-width="2.88" stroke-linejoin="round" x1="-254.059" y1="34.343" x2="-221.991" y2="34.343"/>
<rect x="-254.059" y="10.423" fill="#BFBFBF" stroke="#000000" stroke-width="2.88" stroke-linejoin="round" width="32.068" height="23.92"/>
<ellipse fill="none" stroke="#000000" stroke-width="2.88" stroke-linejoin="round" cx="-205.25" cy="101" rx="5.303" ry="5.656"/>
<rect x="-289.059" y="107.656" fill="#BFBFBF" stroke="#000000" stroke-width="2.88" stroke-linejoin="round" width="34" height="16.688"/>
<path fill="none" stroke="#000000" stroke-width="2.88" stroke-linejoin="round" d="M-309.25,78c0,0,37.583,91.5,73,1"/>
<path fill="none" stroke="#000000" stroke-width="2.88" stroke-linejoin="round" d="M-205.25,25c0,0-24.417,165.166-65,15"/>
</svg>
