<?xml version="1.0" encoding="UTF-8" standalone="no"?>
<!-- Created with Inkscape (http://www.inkscape.org/) -->

<svg
   xmlns:dc="http://purl.org/dc/elements/1.1/"
   xmlns:cc="http://creativecommons.org/ns#"
   xmlns:rdf="http://www.w3.org/1999/02/22-rdf-syntax-ns#"
   xmlns:svg="http://www.w3.org/2000/svg"
   xmlns="http://www.w3.org/2000/svg"
   xmlns:sodipodi="http://sodipodi.sourceforge.net/DTD/sodipodi-0.dtd"
   xmlns:inkscape="http://www.inkscape.org/namespaces/inkscape"
   width="210mm"
   height="297mm"
   viewBox="0 0 744.09448819 1052.3622047"
   id="svg2"
   version="1.1"
   inkscape:version="0.91 r13725"
   sodipodi:docname="WarningIcon.svg">
  <defs
     id="defs4" />
  <sodipodi:namedview
     id="base"
     pagecolor="#ffffff"
     bordercolor="#666666"
     borderopacity="1.0"
     inkscape:pageopacity="0.0"
     inkscape:pageshadow="2"
     inkscape:zoom="0.98994949"
     inkscape:cx="226.55513"
     inkscape:cy="599.33772"
     inkscape:document-units="px"
     inkscape:current-layer="layer1"
     showgrid="true"
     inkscape:window-width="1920"
     inkscape:window-height="1056"
     inkscape:window-x="0"
     inkscape:window-y="0"
     inkscape:window-maximized="1">
    <inkscape:grid
       type="xygrid"
       id="grid4136" />
  </sodipodi:namedview>
  <metadata
     id="metadata7">
    <rdf:RDF>
      <cc:Work
         rdf:about="">
        <dc:format>image/svg+xml</dc:format>
        <dc:type
           rdf:resource="http://purl.org/dc/dcmitype/StillImage" />
        <dc:title></dc:title>
      </cc:Work>
    </rdf:RDF>
  </metadata>
  <g
     inkscape:label="Layer 1"
     inkscape:groupmode="layer"
     id="layer1">
    <g
       id="g4266"
       transform="translate(-138.19179,114.12974)"
       style="fill:#000000"
       inkscape:export-xdpi="90"
       inkscape:export-ydpi="90">
      <g
         id="g4268"
         style="fill:#000000">
        <path
           inkscape:connector-curvature="0"
           style="fill:#000000"
           d="m 21.617,290.246 277.604,0 c 9.469,0 17.013,-4.553 20.168,-12.184 2.904,-7.011 1.36,-14.8 -4.107,-21.212 L 180.497,39.684 179.164,38.351 c -5.009,-5.009 -11.667,-7.767 -18.748,-7.767 -7.082,0 -13.739,2.758 -18.743,7.767 L 140.34,39.684 5.55,256.844 c -5.466,6.413 -7.016,14.207 -4.106,21.212 3.159,7.632 10.698,12.19 20.173,12.19 z M 160.416,69.213 277.35,257.606 l -233.863,0 116.929,-188.393 z"
           id="path4270" />
        <path
           inkscape:connector-curvature="0"
           style="fill:#000000"
           d="m 160.416,105.345 c -9.197,0 -16.654,7.457 -16.654,16.654 l 0,71.388 c 0,9.197 7.457,16.654 16.654,16.654 9.197,0 16.654,-7.457 16.654,-16.654 l 0,-71.388 c 0.006,-9.197 -7.451,-16.654 -16.654,-16.654 z"
           id="path4272" />
        <circle
           style="fill:#000000"
           cx="160.248"
           cy="234.903"
           r="16.486"
           id="circle4274" />
      </g>
    </g>
    <g
       id="g4276"
       transform="translate(-138.19179,114.12974)" />
    <g
       id="g4278"
       transform="translate(-138.19179,114.12974)" />
    <g
       id="g4280"
       transform="translate(-138.19179,114.12974)" />
    <g
       id="g4282"
       transform="translate(-138.19179,114.12974)" />
    <g
       id="g4284"
       transform="translate(-138.19179,114.12974)" />
    <g
       id="g4286"
       transform="translate(-138.19179,114.12974)" />
    <g
       id="g4288"
       transform="translate(-138.19179,114.12974)" />
    <g
       id="g4290"
       transform="translate(-138.19179,114.12974)" />
    <g
       id="g4292"
       transform="translate(-138.19179,114.12974)" />
    <g
       id="g4294"
       transform="translate(-138.19179,114.12974)" />
    <g
       id="g4296"
       transform="translate(-138.19179,114.12974)" />
    <g
       id="g4298"
       transform="translate(-138.19179,114.12974)" />
    <g
       id="g4300"
       transform="translate(-138.19179,114.12974)" />
    <g
       id="g4302"
       transform="translate(-138.19179,114.12974)" />
    <g
       id="g4304"
       transform="translate(-138.19179,114.12974)" />
  </g>
</svg>
